<svg width="32" height="32" viewBox="0 0 32 32" fill="none" xmlns="http://www.w3.org/2000/svg">
<path d="M16 3.2C12.4654 3.2 9.6 6.06537 9.6 9.6C9.6 13.1346 12.4654 16 16 16C19.5346 16 22.4 13.1346 22.4 9.6C22.4 6.06537 19.5346 3.2 16 3.2ZM11.2 9.6C11.2 6.94904 13.349 4.8 16 4.8C18.651 4.8 20.8 6.94904 20.8 9.6C20.8 12.251 18.651 14.4 16 14.4C13.349 14.4 11.2 12.251 11.2 9.6Z" fill="#F1F1F1"/>
<path d="M8.01397 17.6C6.24504 17.6 4.8 19.019 4.8 20.8C4.8 23.5059 6.1325 25.5461 8.21598 26.8746C10.2672 28.1824 13.0324 28.8 16 28.8C18.9675 28.8 21.7328 28.1824 23.784 26.8746C25.8675 25.5461 27.2 23.5059 27.2 20.8C27.2 19.033 25.7672 17.6 24 17.6H8.01397ZM6.4 20.8C6.4 19.9147 7.11658 19.2 8.01397 19.2H24C24.8835 19.2 25.6 19.9165 25.6 20.8C25.6 22.8941 24.6043 24.4539 22.9238 25.5254C21.2109 26.6176 18.7762 27.2 16 27.2C13.2238 27.2 10.7891 26.6176 9.07619 25.5254C7.39562 24.4539 6.4 22.8941 6.4 20.8Z" fill="#F1F1F1"/>
</svg>
