<svg width="56" height="56" viewBox="0 0 56 56" fill="none" xmlns="http://www.w3.org/2000/svg">
<path d="M37.8014 25.8117C34.67 25.8117 34.235 28.9371 34.235 28.9371H40.8923C40.8923 28.9371 40.9348 25.8117 37.8014 25.8117Z" fill="#F1F1F1"/>
<path d="M22.6956 28.9376H16.7932V34.3558H22.0187C22.1075 34.3558 22.2407 34.3578 22.3966 34.3558C23.2373 34.3361 24.8308 34.0914 24.8308 31.7217C24.8308 28.9089 22.6956 28.9376 22.6956 28.9376Z" fill="#F1F1F1"/>
<path d="M28.2477 3.95056C14.8287 3.95056 3.95045 14.8269 3.95045 28.2459C3.95045 41.6649 14.8287 52.5432 28.2477 52.5432C41.6648 52.5432 52.543 41.6649 52.543 28.2459C52.543 14.8279 41.6638 3.95056 28.2477 3.95056ZM33.3618 18.8792H41.7259V21.3755H33.3618V18.8792ZM29.1338 31.9746C29.1338 38.1621 22.6956 37.9579 22.6956 37.9579H16.7932H16.6206H12.1459V17.6853H16.6206H16.7932H22.6956C25.9004 17.6853 28.4303 19.4554 28.4303 23.0825C28.4303 26.7096 25.337 26.9405 25.337 26.9405C29.415 26.9405 29.1338 31.9746 29.1338 31.9746ZM44.7807 31.6431H34.2754C34.2754 35.4083 37.8423 35.1715 37.8423 35.1715C41.2109 35.1715 41.0935 32.9899 41.0935 32.9899H44.6623C44.6623 38.7788 37.7229 38.3822 37.7229 38.3822C29.3992 38.3822 29.935 30.6317 29.935 30.6317C29.935 30.6317 29.9271 22.8437 37.7229 22.8437C45.9292 22.8437 44.7807 31.6431 44.7807 31.6431Z" fill="#F1F1F1"/>
<path d="M24.1283 23.3971C24.1283 21.2888 22.6949 21.2888 22.6949 21.2888H21.9352H16.7932V25.8112H22.3288C23.2838 25.8112 24.1283 25.5044 24.1283 23.3971Z" fill="#F1F1F1"/>
</svg>
