<svg width="56" height="56" viewBox="0 0 56 56" fill="none" xmlns="http://www.w3.org/2000/svg">
<path fill-rule="evenodd" clip-rule="evenodd" d="M28.2469 52.5432C41.6654 52.5432 52.5432 41.6654 52.5432 28.2469C52.5432 14.8284 41.6654 3.95062 28.2469 3.95062C14.8284 3.95062 3.95062 14.8284 3.95062 28.2469C3.95062 41.6654 14.8284 52.5432 28.2469 52.5432Z" fill="#F1F1F1"/>
<path fill-rule="evenodd" clip-rule="evenodd" d="M28.2468 31.0503L42.2639 18.9022H14.2297L28.2468 31.0503ZM24.4608 29.7055L28.2468 32.8132L31.9735 29.7055L42.2639 38.5261H14.2297L24.4608 29.7055ZM13.2952 37.5916V19.8366L23.5744 28.7141L13.2952 37.5916ZM43.1984 37.5916V19.8366L32.9192 28.7141L43.1984 37.5916Z" fill="#444444"/>
</svg>
