<svg width="56" height="56" viewBox="0 0 56 56" fill="none" xmlns="http://www.w3.org/2000/svg">
<path d="M28.0492 32.7902C30.4492 32.7902 32.3949 30.8445 32.3949 28.4445C32.3949 26.0444 30.4492 24.0988 28.0492 24.0988C25.6491 24.0988 23.7035 26.0444 23.7035 28.4445C23.7035 30.8445 25.6491 32.7902 28.0492 32.7902Z" fill="#F1F1F1"/>
<path d="M33.4813 17.7778H22.6171C21.0368 17.7778 19.6541 18.2717 18.7652 19.1605C17.8764 20.0494 17.3825 21.4322 17.3825 23.0124V33.8766C17.3825 35.4568 17.8763 36.8396 18.864 37.8272C19.8517 38.7161 21.1356 39.2099 22.7159 39.2099H33.4813C35.0615 39.2099 36.4443 38.7161 37.3331 37.8272C38.3208 36.9383 38.8146 35.5556 38.8146 33.9754V23.1112C38.8146 21.5309 38.3208 20.247 37.4319 19.2593C36.4443 18.2717 35.1603 17.7778 33.4813 17.7778ZM28.0492 35.1605C24.2961 35.1605 21.3331 32.0988 21.3331 28.4445C21.3331 24.6914 24.3949 21.7284 28.0492 21.7284C31.7035 21.7284 34.864 24.6914 34.864 28.4445C34.864 32.1976 31.8023 35.1605 28.0492 35.1605ZM35.0615 23.0124C34.1726 23.0124 33.4813 22.321 33.4813 21.4322C33.4813 20.5433 34.1726 19.8519 35.0615 19.8519C35.9504 19.8519 36.6418 20.5433 36.6418 21.4322C36.6418 22.321 35.9504 23.0124 35.0615 23.0124Z" fill="#F1F1F1"/>
<path d="M28.2467 3.95067C14.8146 3.95067 3.95042 14.8149 3.95042 28.247C3.95042 41.6791 14.8146 52.5433 28.2467 52.5433C41.6788 52.5433 52.543 41.6791 52.543 28.247C52.6418 14.8149 41.6788 3.95067 28.2467 3.95067ZM41.185 33.9754C41.185 36.247 40.3949 38.2223 39.0121 39.605C37.6294 40.9877 35.6541 41.6791 33.4813 41.6791H22.7159C20.543 41.6791 18.5677 40.9877 17.185 39.605C15.7035 38.2223 15.0122 36.247 15.0122 33.9754V23.1112C15.0122 18.568 18.0739 15.4075 22.7159 15.4075H33.5801C35.8517 15.4075 37.7282 16.1976 39.1109 17.5803C40.4936 18.963 41.185 20.8396 41.185 23.1112V33.9754Z" fill="#F1F1F1"/>
</svg>
