<svg width="56" height="56" viewBox="0 0 56 56" fill="none" xmlns="http://www.w3.org/2000/svg">
<path d="M27.8951 4C14.4773 4 3.6001 14.8772 3.6001 28.295C3.6001 41.7128 14.4773 52.59 27.8951 52.59C41.3129 52.59 52.1901 41.7128 52.1901 28.295C52.1901 14.8772 41.3129 4 27.8951 4ZM21.0085 40.316H15.594V23.3271H21.0085V40.316ZM18.3012 21.1022C17.6987 21.1022 17.1097 20.9235 16.6088 20.5888C16.1078 20.254 15.7173 19.7782 15.4868 19.2216C15.2562 18.6649 15.1959 18.0524 15.3134 17.4615C15.4309 16.8705 15.7211 16.3277 16.1471 15.9017C16.5732 15.4756 17.116 15.1855 17.7069 15.068C18.2979 14.9504 18.9104 15.0107 19.467 15.2413C20.0237 15.4719 20.4995 15.8624 20.8342 16.3633C21.1689 16.8643 21.3476 17.4533 21.3476 18.0558C21.3476 18.8637 21.0266 19.6386 20.4553 20.2099C19.884 20.7812 19.1092 21.1022 18.3012 21.1022ZM40.5361 40.316H35.2216V31.0268C35.2216 30.5548 35.2961 27.4253 32.6384 27.4253C32.1661 27.4136 31.698 27.5159 31.2737 27.7237C30.8494 27.9315 30.4815 28.2385 30.2012 28.6188C29.7131 29.2701 29.4524 30.0636 29.4593 30.8775V40.3156H24.1512V23.3271H29.2015V25.7115C30.4103 23.857 31.9337 23.1782 33.4321 22.9049C36.0919 22.42 40.5356 24.0392 40.5356 28.8743L40.5361 40.316Z" fill="#F1F1F1"/>
</svg>
