<svg width="32" height="32" viewBox="0 0 32 32" fill="none" xmlns="http://www.w3.org/2000/svg">
<path d="M13.09 15.65C13.9396 14.9183 14.5449 13.944 14.8243 12.8581C15.1037 11.7721 15.0439 10.6267 14.6529 9.57577C14.262 8.52485 13.5586 7.61884 12.6374 6.97958C11.7162 6.34032 10.6213 5.99847 9.5 6H3C2.73478 6 2.48043 6.10535 2.29289 6.29289C2.10536 6.48043 2 6.73478 2 7V25C2 25.2652 2.10536 25.5196 2.29289 25.7071C2.48043 25.8946 2.73478 26 3 26H10.5C11.7257 25.9992 12.9161 25.5889 13.882 24.8344C14.848 24.0798 15.5342 23.0242 15.8317 21.8352C16.1293 20.6461 16.0211 19.3917 15.5244 18.2711C15.0277 17.1506 14.1709 16.228 13.09 15.65ZM4 8H9.5C10.4283 8 11.3185 8.36875 11.9749 9.02512C12.6313 9.6815 13 10.5717 13 11.5C13 12.4283 12.6313 13.3185 11.9749 13.9749C11.3185 14.6312 10.4283 15 9.5 15H4V8ZM10.5 24H4V17H10.5C11.4283 17 12.3185 17.3687 12.9749 18.0251C13.6313 18.6815 14 19.5717 14 20.5C14 21.4283 13.6313 22.3185 12.9749 22.9749C12.3185 23.6313 11.4283 24 10.5 24Z" fill="#F1F1F1"/>
<path d="M23.5 13C21.7761 13 20.1228 13.6848 18.9038 14.9038C17.6848 16.1228 17 17.7761 17 19.5C17 21.2239 17.6848 22.8772 18.9038 24.0962C20.1228 25.3152 21.7761 26 23.5 26C27.55 26 28.83 23.74 28.88 23.65C28.9434 23.5345 28.9833 23.4076 28.9974 23.2767C29.0116 23.1457 28.9998 23.0132 28.9626 22.8869C28.9255 22.7605 28.8637 22.6427 28.7809 22.5403C28.698 22.4379 28.5958 22.3528 28.48 22.29C28.3645 22.2266 28.2376 22.1867 28.1067 22.1726C27.9757 22.1584 27.8432 22.1702 27.7169 22.2074C27.5905 22.2445 27.4727 22.3063 27.3703 22.3891C27.2679 22.472 27.1828 22.5742 27.12 22.69C27.12 22.69 26.28 24 23.5 24C22.4816 23.9983 21.4939 23.6512 20.6983 23.0155C19.9027 22.3797 19.3463 21.4929 19.12 20.5H29C29.2652 20.5 29.5196 20.3946 29.7071 20.2071C29.8946 20.0196 30 19.7652 30 19.5C29.9974 17.7769 29.3117 16.1251 28.0933 14.9067C26.8749 13.6883 25.2231 13.0026 23.5 13ZM23.5 15C24.5184 15.0017 25.5061 15.3488 26.3017 15.9845C27.0973 16.6203 27.6537 17.5071 27.88 18.5H19.12C19.3463 17.5071 19.9027 16.6203 20.6983 15.9845C21.4939 15.3488 22.4816 15.0017 23.5 15Z" fill="#F1F1F1"/>
<path d="M21 11H27C27.2652 11 27.5196 10.8946 27.7071 10.7071C27.8946 10.5196 28 10.2652 28 10C28 9.73478 27.8946 9.48043 27.7071 9.29289C27.5196 9.10536 27.2652 9 27 9H21C20.7348 9 20.4804 9.10536 20.2929 9.29289C20.1054 9.48043 20 9.73478 20 10C20 10.2652 20.1054 10.5196 20.2929 10.7071C20.4804 10.8946 20.7348 11 21 11Z" fill="#F1F1F1"/>
</svg>
