<svg width="32" height="32" viewBox="0 0 32 32" fill="none" xmlns="http://www.w3.org/2000/svg">
<path d="M9.6 16.8C9.6 16.3582 9.95818 16 10.4 16C10.8418 16 11.2 16.3582 11.2 16.8C11.2 17.2418 10.8418 17.6 10.4 17.6C9.95818 17.6 9.6 17.2418 9.6 16.8ZM10.4 19.2C9.95818 19.2 9.6 19.5582 9.6 20C9.6 20.4418 9.95818 20.8 10.4 20.8C10.8418 20.8 11.2 20.4418 11.2 20C11.2 19.5582 10.8418 19.2 10.4 19.2ZM9.6 23.2C9.6 22.7582 9.95818 22.4 10.4 22.4C10.8418 22.4 11.2 22.7582 11.2 23.2C11.2 23.6418 10.8418 24 10.4 24C9.95818 24 9.6 23.6418 9.6 23.2ZM13.6 16C13.1582 16 12.8 16.3582 12.8 16.8C12.8 17.2418 13.1582 17.6 13.6 17.6H21.6C22.0418 17.6 22.4 17.2418 22.4 16.8C22.4 16.3582 22.0418 16 21.6 16H13.6ZM12.8 20C12.8 19.5582 13.1582 19.2 13.6 19.2H21.6C22.0418 19.2 22.4 19.5582 22.4 20C22.4 20.4418 22.0418 20.8 21.6 20.8H13.6C13.1582 20.8 12.8 20.4418 12.8 20ZM13.6 22.4C13.1582 22.4 12.8 22.7582 12.8 23.2C12.8 23.6418 13.1582 24 13.6 24H21.6C22.0418 24 22.4 23.6418 22.4 23.2C22.4 22.7582 22.0418 22.4 21.6 22.4H13.6ZM9.6 3.2C7.83269 3.2 6.4 4.63269 6.4 6.4V25.6C6.4 27.3674 7.83269 28.8 9.6 28.8H22.4C24.1674 28.8 25.6 27.3674 25.6 25.6V11.8627C25.6 11.2262 25.3472 10.6158 24.8971 10.1657L18.6342 3.90294C18.1842 3.45286 17.5738 3.2 16.9373 3.2H9.6ZM8 6.4C8 5.51635 8.71635 4.8 9.6 4.8H16V10.4C16 11.7255 17.0746 12.8 18.4 12.8H24V25.6C24 26.4837 23.2837 27.2 22.4 27.2H9.6C8.71635 27.2 8 26.4837 8 25.6V6.4ZM23.6686 11.2H18.4C17.9582 11.2 17.6 10.8418 17.6 10.4V5.13138L23.6686 11.2Z" fill="#F1F1F1"/>
</svg>
