<svg width="56" height="56" viewBox="0 0 56 56" fill="none" xmlns="http://www.w3.org/2000/svg">
<path d="M28.295 4C14.8772 4 4 14.8772 4 28.295C4 41.7128 14.8772 52.59 28.295 52.59C41.7128 52.59 52.59 41.7128 52.59 28.295C52.59 14.8772 41.7128 4 28.295 4ZM40.9226 19.3681L36.6076 39.968C36.5554 40.2171 36.4414 40.4492 36.2761 40.6428C36.1108 40.8364 35.8995 40.9854 35.6617 41.076C35.4238 41.1667 35.1669 41.1961 34.9147 41.1615C34.6625 41.127 34.423 41.0296 34.2182 40.8784L27.9418 36.2414L24.1392 39.8287C24.0895 39.8756 24.0308 39.9122 23.9668 39.9363C23.9027 39.9603 23.8345 39.9714 23.7661 39.9688C23.6977 39.9662 23.6305 39.95 23.5685 39.9211C23.5064 39.8923 23.4508 39.8514 23.4047 39.8008L23.323 39.711L23.9837 33.3169L35.8924 22.4363C35.9513 22.3826 35.9879 22.3087 35.995 22.2293C36.0022 22.15 35.9793 22.0708 35.9309 22.0074C35.8825 21.9441 35.8121 21.9012 35.7337 21.8871C35.6552 21.8731 35.5743 21.889 35.507 21.9317L20.2772 31.5709L13.718 29.3681C13.5436 29.3095 13.3916 29.1984 13.2828 29.0499C13.1741 28.9015 13.1139 28.7231 13.1106 28.5392C13.1073 28.3552 13.1609 28.1747 13.2643 28.0225C13.3676 27.8703 13.5155 27.7537 13.6876 27.6889L39.3511 18.0213C39.5491 17.9468 39.7634 17.9268 39.9717 17.9635C40.1801 18.0002 40.3747 18.0922 40.5353 18.2298C40.6959 18.3674 40.8166 18.5457 40.8847 18.746C40.9528 18.9462 40.9659 19.1611 40.9226 19.3681Z" fill="#F1F1F1"/>
</svg>
