<svg width="56" height="56" viewBox="0 0 56 56" fill="none" xmlns="http://www.w3.org/2000/svg">
<path d="M38.2221 24.5926C35.4567 24.5926 34.5678 27.2593 34.3703 28.8395V28.9383L33.9752 30.4198C35.1604 31.4075 36.6419 32.0988 38.1234 32.0988C40.0987 32.0988 41.8764 30.4198 41.9752 28.247C41.9752 26.2716 40.2962 24.5926 38.2221 24.5926Z" fill="#F1F1F1"/>
<path d="M28.2468 3.95067C14.8251 3.95067 3.95052 14.8252 3.95052 28.247C3.95052 41.6687 14.8251 52.5433 28.2468 52.5433C41.6686 52.5433 52.5431 41.6687 52.5431 28.247C52.5431 14.8252 41.6686 3.95067 28.2468 3.95067ZM37.9457 35.6926C35.9864 35.6926 34.3209 35.1048 32.8514 34.2231L31.1859 42.0606H27.3651L29.7163 31.284C28.7367 29.9124 27.757 28.3449 27.0712 26.8754V28.5409C27.0712 32.5576 23.8382 35.7906 19.9195 35.7906C16.0007 35.7906 12.7677 32.5576 12.7677 28.5409V18.744H16.4905V28.5409C16.4905 30.5002 18.058 32.0678 20.0174 32.0678C21.9768 32.0678 23.5443 30.5002 23.5443 28.5409V18.744H27.2671C28.0509 21.1932 29.3245 24.1323 30.9899 26.7774C31.9696 23.0546 34.7128 20.8013 38.1417 20.8013C42.1584 20.8013 45.4893 24.1323 45.4893 28.149C45.2934 32.3617 41.9625 35.6926 37.9457 35.6926Z" fill="#F1F1F1"/>
</svg>
